<?xml version="1.0" encoding="UTF-8" standalone="no"?>
<svg
   xmlns:dc="http://purl.org/dc/elements/1.1/"
   xmlns:cc="http://creativecommons.org/ns#"
   xmlns:rdf="http://www.w3.org/1999/02/22-rdf-syntax-ns#"
   xmlns:svg="http://www.w3.org/2000/svg"
   xmlns="http://www.w3.org/2000/svg"
   xmlns:sodipodi="http://sodipodi.sourceforge.net/DTD/sodipodi-0.dtd"
   xmlns:inkscape="http://www.inkscape.org/namespaces/inkscape"
   width="50.799999mm"
   height="128.5mm"
   viewBox="0 0 50.8 128.5"
   version="1.1"
   id="svg78"
   inkscape:version="1.0 (4035a4fb49, 2020-05-01)"
   sodipodi:docname="kickbaba10HP.svg">
  <defs
     id="defs72">
    <marker
       inkscape:isstock="true"
       style="overflow:visible"
       id="marker8428"
       refX="0.0"
       refY="0.0"
       orient="auto"
       inkscape:stockid="DotM">
      <path
         transform="scale(0.4) translate(7.4, 1)"
         style="fill-rule:evenodd;stroke:#000000;stroke-width:1pt;stroke-opacity:1;fill:#000000;fill-opacity:1"
         d="M -2.5,-1.0 C -2.5,1.7600000 -4.7400000,4.0 -7.5,4.0 C -10.260000,4.0 -12.5,1.7600000 -12.5,-1.0 C -12.5,-3.7600000 -10.260000,-6.0 -7.5,-6.0 C -4.7400000,-6.0 -2.5,-3.7600000 -2.5,-1.0 z "
         id="path8426" />
    </marker>
    <marker
       inkscape:stockid="DotM"
       orient="auto"
       refY="0.0"
       refX="0.0"
       id="DotM"
       style="overflow:visible"
       inkscape:isstock="true">
      <path
         id="path7100"
         d="M -2.5,-1.0 C -2.5,1.7600000 -4.7400000,4.0 -7.5,4.0 C -10.260000,4.0 -12.5,1.7600000 -12.5,-1.0 C -12.5,-3.7600000 -10.260000,-6.0 -7.5,-6.0 C -4.7400000,-6.0 -2.5,-3.7600000 -2.5,-1.0 z "
         style="fill-rule:evenodd;stroke:#ccff42;stroke-width:1pt;stroke-opacity:1;fill:#ccff42;fill-opacity:1"
         transform="scale(0.4) translate(7.4, 1)" />
    </marker>
    <marker
       inkscape:stockid="Tail"
       orient="auto"
       refY="0.0"
       refX="0.0"
       id="Tail"
       style="overflow:visible"
       inkscape:isstock="true">
      <g
         id="g7084"
         transform="scale(-1.2)"
         style="stroke:#ccff42;stroke-opacity:1;fill:#ccff42;fill-opacity:1">
        <path
           id="path7072"
           d="M -3.8048674,-3.9585227 L 0.54352094,0"
           style="fill:#ccff42;fill-rule:evenodd;stroke:#ccff42;stroke-width:0.8;stroke-linecap:round;stroke-opacity:1;fill-opacity:1" />
        <path
           id="path7074"
           d="M -1.2866832,-3.9585227 L 3.0617053,0"
           style="fill:#ccff42;fill-rule:evenodd;stroke:#ccff42;stroke-width:0.8;stroke-linecap:round;stroke-opacity:1;fill-opacity:1" />
        <path
           id="path7076"
           d="M 1.3053582,-3.9585227 L 5.6537466,0"
           style="fill:#ccff42;fill-rule:evenodd;stroke:#ccff42;stroke-width:0.8;stroke-linecap:round;stroke-opacity:1;fill-opacity:1" />
        <path
           id="path7078"
           d="M -3.8048674,4.1775838 L 0.54352094,0.21974226"
           style="fill:#ccff42;fill-rule:evenodd;stroke:#ccff42;stroke-width:0.8;stroke-linecap:round;stroke-opacity:1;fill-opacity:1" />
        <path
           id="path7080"
           d="M -1.2866832,4.1775838 L 3.0617053,0.21974226"
           style="fill:#ccff42;fill-rule:evenodd;stroke:#ccff42;stroke-width:0.8;stroke-linecap:round;stroke-opacity:1;fill-opacity:1" />
        <path
           id="path7082"
           d="M 1.3053582,4.1775838 L 5.6537466,0.21974226"
           style="fill:#ccff42;fill-rule:evenodd;stroke:#ccff42;stroke-width:0.8;stroke-linecap:round;stroke-opacity:1;fill-opacity:1" />
      </g>
    </marker>
    <marker
       inkscape:stockid="Arrow1Lend"
       orient="auto"
       refY="0.0"
       refX="0.0"
       id="Arrow1Lend"
       style="overflow:visible;"
       inkscape:isstock="true">
      <path
         id="path7039"
         d="M 0.0,0.0 L 5.0,-5.0 L -12.5,0.0 L 5.0,5.0 L 0.0,0.0 z "
         style="fill-rule:evenodd;stroke:#ccff42;stroke-width:1pt;stroke-opacity:1;fill:#ccff42;fill-opacity:1"
         transform="scale(0.8) rotate(180) translate(12.5,0)" />
    </marker>
    <inkscape:perspective
       sodipodi:type="inkscape:persp3d"
       inkscape:vp_x="0 : 64.25 : 1"
       inkscape:vp_y="0 : 1000 : 0"
       inkscape:vp_z="50.8 : 64.25 : 1"
       inkscape:persp3d-origin="25.4 : 42.833333 : 1"
       id="perspective6899" />
    <rect
       x="6.3499997"
       y="16.062561"
       width="41.50473"
       height="15.133533"
       id="rect4741" />
    <rect
       x="-4e-07"
       y="76.296861"
       width="25.4"
       height="8.03124"
       id="rect4735" />
    <rect
       x="5.8620081"
       y="56.966694"
       width="42.837749"
       height="6.9141631"
       id="rect130" />
    <rect
       x="3.3067737"
       y="63.580238"
       width="9.4693975"
       height="4.0583129"
       id="rect124" />
    <filter
       inkscape:label="Peel Off"
       inkscape:menu="Materials"
       inkscape:menu-tooltip="Peeling painting on a wall"
       height="1.5"
       width="1.5"
       y="-0.25"
       x="-0.25"
       style="color-interpolation-filters:sRGB;"
       id="filter4920">
      <feTurbulence
         type="fractalNoise"
         numOctaves="3"
         baseFrequency="0.07"
         result="result1"
         id="feTurbulence4892" />
      <feGaussianBlur
         stdDeviation="3"
         in="SourceAlpha"
         id="feGaussianBlur4894" />
      <feComposite
         in2="result1"
         operator="in"
         id="feComposite4896" />
      <feColorMatrix
         values="1 0 0 0 0 0 1 0 0 0 0 0 1 0 0 0 0 0 20 -9"
         result="result1"
         id="feColorMatrix4898" />
      <feComposite
         in="SourceGraphic"
         operator="in"
         result="result1"
         in2="result1"
         id="feComposite4900" />
      <feTurbulence
         baseFrequency="0.04"
         numOctaves="5"
         result="result0"
         type="fractalNoise"
         id="feTurbulence4902" />
      <feDisplacementMap
         in2="result0"
         in="result1"
         xChannelSelector="R"
         yChannelSelector="G"
         scale="35"
         result="result2"
         id="feDisplacementMap4904" />
      <feColorMatrix
         result="result3"
         values="4 0 0 0 0 0 1 0 0 0 0 0 2 0 0 0 0 0 0.7 0 "
         id="feColorMatrix4906" />
      <feGaussianBlur
         stdDeviation="0.3"
         in="result1"
         result="result4"
         id="feGaussianBlur4908" />
      <feComposite
         in2="result3"
         in="result4"
         result="fbSourceGraphic"
         operator="xor"
         id="feComposite4910" />
      <feDiffuseLighting
         in="fbSourceGraphic"
         diffuseConstant="2"
         result="result3"
         surfaceScale="5"
         id="feDiffuseLighting4914">
        <feDistantLight
           azimuth="225"
           elevation="25"
           id="feDistantLight4912" />
      </feDiffuseLighting>
      <feBlend
         in2="fbSourceGraphic"
         in="result3"
         mode="darken"
         result="result7"
         id="feBlend4916" />
      <feComposite
         in2="fbSourceGraphic"
         operator="in"
         in="result7"
         id="feComposite4918" />
    </filter>
  </defs>
  <sodipodi:namedview
     showguides="true"
     id="base"
     pagecolor="#ffffff"
     bordercolor="#666666"
     borderopacity="1.0"
     inkscape:pageopacity="0.0"
     inkscape:pageshadow="2"
     inkscape:zoom="1.897039"
     inkscape:cx="56.029745"
     inkscape:cy="264.48978"
     inkscape:document-units="mm"
     inkscape:current-layer="layer21"
     inkscape:document-rotation="0"
     showgrid="true"
     inkscape:window-width="1920"
     inkscape:window-height="1057"
     inkscape:window-x="-8"
     inkscape:window-y="-8"
     inkscape:window-maximized="1"
     inkscape:snap-object-midpoints="true"
     inkscape:snap-center="true"
     inkscape:snap-others="true"
     inkscape:snap-to-guides="true"
     inkscape:guide-bbox="true"
     inkscape:snap-global="true"
     inkscape:snap-bbox="true">
    <inkscape:grid
       type="xygrid"
       id="grid4646"
       spacingx="6.3500001"
       units="mm"
       spacingy="4.01562"
       originx="25.4"
       originy="64.250001" />
    <sodipodi:guide
       position="57.150001,44.1719"
       orientation="1,0"
       id="guide6947" />
  </sodipodi:namedview>
  <metadata
     id="metadata75">
    <rdf:RDF>
      <cc:Work
         rdf:about="">
        <dc:format>image/svg+xml</dc:format>
        <dc:type
           rdf:resource="http://purl.org/dc/dcmitype/StillImage" />
        <dc:title></dc:title>
      </cc:Work>
    </rdf:RDF>
  </metadata>
  <g
     sodipodi:insensitive="true"
     style="display:inline"
     inkscape:label="Background"
     id="layer2"
     inkscape:groupmode="layer">
    <rect
       y="2.9762976e-15"
       x="-2.2488521e-15"
       height="128.50002"
       width="50.799999"
       id="rect835"
       style="fill:#e6e6e6;fill-opacity:1;stroke:#bdcdd4;stroke-width:0.257837" />
  </g>
  <g
     sodipodi:insensitive="true"
     inkscape:label="OUTPUTBACKGROUNDS"
     id="layer20"
     inkscape:groupmode="layer">
    <g
       sodipodi:insensitive="true"
       inkscape:groupmode="layer"
       id="layer6"
       inkscape:label="KickBassOutputBackground"
       style="display:inline">
      <rect
         style="fill:#2d2d2d;stroke:#2d2d2d;stroke-width:0.34158"
         id="rect72"
         width="25.400002"
         height="20.078106"
         x="25.4"
         y="104.4062"
         ry="3" />
    </g>
    <g
       sodipodi:insensitive="true"
       style="display:inline"
       inkscape:label="LFOsOutputBackground"
       id="layer18"
       inkscape:groupmode="layer">
      <rect
         y="80.309937"
         x="12.697451"
         height="20.080643"
         width="38.105095"
         id="rect162"
         style="fill:#2d2d2d;stroke:#2d2d2d;stroke-width:0.298457;stroke-miterlimit:4;stroke-dasharray:none"
         ry="3" />
    </g>
  </g>
  <g
     inkscape:groupmode="layer"
     id="layer4"
     inkscape:label="LCD"
     sodipodi:insensitive="true"
     style="display:none">
    <rect
       style="fill:#0e232e;stroke:#ffffff;stroke-width:0.0940001"
       id="rect1014"
       width="50.799999"
       height="24.093719"
       x="-3.9999998e-07"
       y="8.0313206" />
  </g>
  <g
     sodipodi:insensitive="true"
     inkscape:label="LFOICONS"
     id="layer13"
     inkscape:groupmode="layer">
    <g
       sodipodi:insensitive="true"
       inkscape:groupmode="layer"
       id="layer17"
       inkscape:label="Break">
      <rect
         style="fill:#cccccc;stroke:#cccccc;stroke-width:0.342622"
         id="rect224"
         width="1.6573782"
         height="3.6573777"
         x="45.126263"
         y="82.349312" />
      <rect
         style="fill:#cccccc;stroke:#cccccc;stroke-width:0.109987"
         id="rect226"
         width="4.8900142"
         height="0.19001347"
         x="41.956486"
         y="85.929993" />
    </g>
    <g
       sodipodi:insensitive="true"
       inkscape:groupmode="layer"
       id="layer16"
       inkscape:label="Faller">
      <path
         id="path205-7"
         d="m 20.25884,86.173682 c -3.424387,-3.638095 -3.54247,-3.729044 -3.54247,-3.729044 v 3.819998 z"
         style="fill:#cccccc;stroke:#cccccc;stroke-width:0.105465;stroke-linecap:butt;stroke-linejoin:miter;stroke-miterlimit:4;stroke-dasharray:none;stroke-opacity:1" />
      <rect
         y="85.994232"
         x="16.701088"
         height="0.18796186"
         width="5.1295643"
         id="rect226-0"
         style="fill:#cccccc;stroke:#cccccc;stroke-width:0.112038" />
    </g>
    <g
       sodipodi:insensitive="true"
       inkscape:groupmode="layer"
       id="layer15"
       inkscape:label="Riser">
      <path
         sodipodi:type="star"
         style="fill:#ffffff;stroke-width:0.264583"
         id="path192"
         sodipodi:sides="3"
         sodipodi:cx="-33.969582"
         sodipodi:cy="35.02174"
         sodipodi:r1="26.461021"
         sodipodi:r2="13.23051"
         sodipodi:arg1="0.37206776"
         sodipodi:arg2="1.4192653"
         inkscape:flatsided="true"
         inkscape:rounded="0"
         inkscape:randomized="0"
         d="M -9.3190863,44.641445 -54.625739,51.559842 -37.96392,8.863932 Z"
         inkscape:transform-center-x="-1.9971695"
         inkscape:transform-center-y="-4.8098531" />
      <path
         style="fill:#cccccc;stroke:#cccccc;stroke-width:0.121986px;stroke-linecap:butt;stroke-linejoin:miter;stroke-opacity:1"
         d="m 29.43619,86.174698 c 4.579009,-3.649687 4.736907,-3.740928 4.736907,-3.740928 v 3.832171 z"
         id="path205" />
    </g>
  </g>
  <g
     inkscape:label="ALLTEXT"
     id="layer10"
     inkscape:groupmode="layer">
    <g
       style="display:inline"
       inkscape:groupmode="layer"
       id="layer7"
       inkscape:label="BarRetrigKickBass">
      <path
         sodipodi:type="star"
         style="fill:#ffffff;stroke-width:0.264583"
         id="path187"
         sodipodi:sides="3"
         sodipodi:cx="-36.374508"
         sodipodi:cy="21.193413"
         sodipodi:r1="34.282063"
         sodipodi:r2="17.141031"
         sodipodi:arg1="0.95360494"
         sodipodi:arg2="2.0008025"
         inkscape:flatsided="true"
         inkscape:rounded="0"
         inkscape:randomized="0"
         d="M -16.533867,49.15068 -70.506532,24.397278 -22.083125,-9.9677198 Z"
         inkscape:transform-center-x="7.1456913"
         inkscape:transform-center-y="-1.6019332" />
      <path
         sodipodi:type="star"
         style="fill:#ffffff;stroke-width:0.264583"
         id="path189"
         sodipodi:sides="3"
         sodipodi:cx="-20.592182"
         sodipodi:cy="39.681282"
         sodipodi:r1="14.58064"
         sodipodi:r2="7.2903204"
         sodipodi:arg1="0.9169863"
         sodipodi:arg2="1.9641839"
         inkscape:flatsided="true"
         inkscape:rounded="0"
         inkscape:randomized="0"
         d="M -11.724017,51.254989 -35.049389,41.574485 -15.00314,26.214372 Z"
         inkscape:transform-center-x="2.7945206"
         inkscape:transform-center-y="-0.94660176" />
      <g
         style="font-weight:300;font-size:2.82223px;line-height:1.25;font-family:'LEMON MILK';-inkscape-font-specification:'LEMON MILK Light';fill:#2d2d2d;stroke-width:0.264583"
         id="text6951"
         aria-label="BAR">
        <path
           id="path4100"
           style="fill:#2d2d2d;stroke-width:0.264583"
           d="m 4.5344293,108.29849 c 0.1129995,0 0.2880108,-0.17501 0.2880108,-0.41617 0,-0.29214 -0.2673401,-0.55397 -0.6380334,-0.55397 H 3.5780682 v 2.2214 h 0.8226911 c 0.4244369,0 0.7028014,-0.32659 0.7028014,-0.678 0,-0.33486 -0.2838767,-0.57326 -0.5691314,-0.57326 z m -0.3362422,-0.72623 c 0.2108404,0 0.3886078,0.14883 0.3886078,0.339 0,0.18741 -0.1488285,0.33486 -0.3899859,0.33349 H 3.8274938 v -0.67249 z m 0.1819015,1.7322 H 3.8274938 v -0.83647 h 0.5401925 c 0.2935229,-0.001 0.4905829,0.17914 0.4905829,0.38723 0,0.25769 -0.2246208,0.44924 -0.4781806,0.44924 z" />
        <path
           id="path4102"
           style="fill:#2d2d2d;stroke-width:0.264583"
           d="M 6.980454,109.54975 H 7.2533063 L 6.2252869,107.2939 h -0.027561 l -1.0266413,2.25585 h 0.2714743 l 0.1626089,-0.36518 h 1.212677 z m -1.277445,-0.58291 0.5098756,-1.1424 0.5084975,1.1424 z" />
        <path
           id="path4104"
           style="fill:#2d2d2d;stroke-width:0.264583"
           d="m 9.1219314,109.54975 -0.6600821,-0.89573 c 0.2700962,-0.0813 0.4671562,-0.32935 0.4671562,-0.61736 0,-0.39136 -0.3362423,-0.70831 -0.7482768,-0.70831 h -0.655948 l 0.00138,2.2214 h 0.2508037 v -0.86679 H 8.191753 l 0.6201189,0.86679 z m -1.3463471,-1.07901 v -0.89434 h 0.4134126 c 0.261828,0 0.4823147,0.19843 0.4823147,0.45475 0,0.23978 -0.2177306,0.44097 -0.4823147,0.44097 z" />
      </g>
      <g
         style="font-weight:300;font-size:2.82223px;line-height:1.25;font-family:'LEMON MILK';-inkscape-font-specification:'LEMON MILK Light';fill:#2d2d2d;stroke-width:0.264583"
         id="text6955"
         aria-label="RETRIG">
        <path
           id="path4107"
           style="fill:#2d2d2d;stroke-width:0.264583"
           d="m 15.693089,109.53252 -0.660082,-0.89573 c 0.270096,-0.0813 0.467156,-0.32935 0.467156,-0.61736 0,-0.39137 -0.336242,-0.70832 -0.748276,-0.70832 h -0.655948 l 0.0014,2.22141 h 0.250803 v -0.86679 h 0.414791 l 0.620119,0.86679 z m -1.346347,-1.07901 v -0.89435 h 0.413413 c 0.261828,0 0.482315,0.19844 0.482315,0.45475 0,0.23978 -0.217731,0.44098 -0.482315,0.44098 z" />
        <path
           id="path4109"
           style="fill:#2d2d2d;stroke-width:0.264583"
           d="m 17.258545,107.55778 v -0.24667 h -1.305006 v 2.22141 h 1.305006 v -0.24943 h -1.054202 v -0.7717 h 0.913642 v -0.25081 h -0.913642 v -0.7028 z" />
        <path
           id="path4111"
           style="fill:#2d2d2d;stroke-width:0.264583"
           d="m 19.033463,107.31111 h -1.540651 v 0.24805 h 0.646302 v 1.97336 h 0.250804 v -1.97336 h 0.643545 z" />
        <path
           id="path4113"
           style="fill:#2d2d2d;stroke-width:0.264583"
           d="m 20.935161,109.53252 -0.660082,-0.89573 c 0.270097,-0.0813 0.467157,-0.32935 0.467157,-0.61736 0,-0.39137 -0.336243,-0.70832 -0.748277,-0.70832 h -0.655948 l 0.0014,2.22141 h 0.250803 v -0.86679 h 0.414791 l 0.620119,0.86679 z m -1.346347,-1.07901 v -0.89435 h 0.413413 c 0.261828,0 0.482315,0.19844 0.482315,0.45475 0,0.23978 -0.217731,0.44098 -0.482315,0.44098 z" />
        <path
           id="path4115"
           style="fill:#2d2d2d;stroke-width:0.264583"
           d="m 21.195611,109.53252 h 0.250804 v -2.22141 h -0.250804 z" />
        <path
           id="path4117"
           style="fill:#2d2d2d;stroke-width:0.264583"
           d="m 23.994415,108.35567 h -1.05558 v 0.226 h 0.796508 c 0.0014,0.0124 0.0014,0.0276 0.0014,0.0441 0,0.39275 -0.341754,0.68351 -0.775838,0.68351 -0.512631,0 -0.905373,-0.39825 -0.905373,-0.88608 0,-0.50298 0.416168,-0.89159 0.884703,-0.89159 0.223242,0 0.493339,0.11989 0.665594,0.29077 l 0.14056,-0.20809 c -0.199816,-0.1943 -0.531924,-0.33211 -0.804776,-0.33348 -0.627009,0 -1.141019,0.51538 -1.141019,1.14239 0,0.62701 0.512632,1.13964 1.150665,1.13964 0.573265,0 1.052824,-0.42581 1.052824,-1.04869 0,-0.0634 -0.0055,-0.12264 -0.0096,-0.15847 z" />
      </g>
      <g
         style="font-style:normal;font-variant:normal;font-weight:300;font-stretch:normal;font-size:2.82223px;line-height:1.25;font-family:'LEMON MILK';-inkscape-font-specification:'LEMON MILK Light';fill:#ff4141;stroke-width:0.264583"
         id="text6959"
         aria-label="KICK">
        <path
           id="path4120"
           style="font-style:normal;font-variant:normal;font-weight:300;font-stretch:normal;font-family:'LEMON MILK';-inkscape-font-specification:'LEMON MILK Light';fill:#ff4141;stroke-width:0.264583"
           d="m 28.685923,109.5339 h 0.250804 v -2.22141 h -0.250804 z m 1.216812,0 h 0.308681 l -0.942581,-1.12862 0.864033,-1.09279 h -0.294901 l -0.868167,1.10382 z" />
        <path
           id="path4122"
           style="font-style:normal;font-variant:normal;font-weight:300;font-stretch:normal;font-family:'LEMON MILK';-inkscape-font-specification:'LEMON MILK Light';fill:#ff4141;stroke-width:0.264583"
           d="m 30.471866,109.5339 h 0.250804 v -2.22141 h -0.250804 z" />
        <path
           id="path4124"
           style="font-style:normal;font-variant:normal;font-weight:300;font-stretch:normal;font-family:'LEMON MILK';-inkscape-font-specification:'LEMON MILK Light';fill:#ff4141;stroke-width:0.264583"
           d="m 32.219223,109.56284 c 0.327974,0 0.5774,-0.14332 0.762058,-0.3266 l -0.144695,-0.20119 c -0.159853,0.15709 -0.373449,0.2756 -0.624253,0.2756 -0.454754,0 -0.881947,-0.38447 -0.881947,-0.88608 0,-0.50298 0.431327,-0.88883 0.877813,-0.88883 0.243913,0 0.467156,0.11437 0.627009,0.27836 l 0.146073,-0.19706 c -0.201195,-0.20257 -0.478181,-0.33349 -0.763436,-0.33624 -0.622875,0 -1.141018,0.51952 -1.141018,1.14377 0,0.62977 0.525034,1.13827 1.142396,1.13827 z" />
        <path
           id="path4126"
           style="font-style:normal;font-variant:normal;font-weight:300;font-stretch:normal;font-family:'LEMON MILK';-inkscape-font-specification:'LEMON MILK Light';fill:#ff4141;stroke-width:0.264583"
           d="m 33.288584,109.5339 h 0.250803 v -2.22141 h -0.250803 z m 1.216811,0 h 0.308681 l -0.942581,-1.12862 0.864033,-1.09279 h -0.294901 l -0.868167,1.10382 z" />
      </g>
      <g
         style="font-weight:300;font-size:2.82223px;line-height:1.25;font-family:'LEMON MILK';-inkscape-font-specification:'LEMON MILK Light';fill:#ff4141;stroke-width:0.264583"
         id="text6963"
         aria-label="BASS">
        <path
           id="path4129"
           style="fill:#ff4141;stroke-width:0.264583"
           d="m 41.905445,108.28333 c 0.113,0 0.288011,-0.17501 0.288011,-0.41617 0,-0.29214 -0.26734,-0.55397 -0.638033,-0.55397 h -0.606339 v 2.2214 h 0.822691 c 0.424437,0 0.702802,-0.32659 0.702802,-0.678 0,-0.33486 -0.283877,-0.57326 -0.569132,-0.57326 z m -0.336242,-0.72623 c 0.210841,0 0.388608,0.14883 0.388608,0.339 0,0.18741 -0.148829,0.33486 -0.389986,0.33349 H 41.19851 v -0.67249 z m 0.181902,1.7322 H 41.19851 v -0.83647 h 0.540192 c 0.293523,-0.001 0.490583,0.17914 0.490583,0.38723 0,0.25769 -0.224621,0.44924 -0.47818,0.44924 z" />
        <path
           id="path4131"
           style="fill:#ff4141;stroke-width:0.264583"
           d="m 44.35147,109.53459 h 0.272852 l -1.028019,-2.25585 h -0.02756 l -1.026641,2.25585 h 0.271474 l 0.162609,-0.36518 h 1.212677 z m -1.277445,-0.58291 0.509876,-1.1424 0.508497,1.1424 z" />
        <path
           id="path4133"
           style="fill:#ff4141;stroke-width:0.264583"
           d="m 45.444258,109.56491 c 0.427193,0 0.781349,-0.24943 0.781349,-0.63252 0,-0.35692 -0.315571,-0.51126 -0.649057,-0.6463 -0.286633,-0.11025 -0.530547,-0.1888 -0.530547,-0.40377 0,-0.19844 0.203951,-0.35554 0.442352,-0.35554 0.199816,0 0.378961,0.113 0.45062,0.27975 l 0.188791,-0.12678 c -0.08268,-0.21911 -0.307303,-0.39964 -0.636655,-0.39964 -0.389986,0 -0.697289,0.25494 -0.697289,0.5967 0,0.34313 0.304547,0.4768 0.577399,0.58291 0.283877,0.10749 0.602205,0.22738 0.602205,0.4768 0,0.21911 -0.237024,0.37621 -0.52779,0.37621 -0.235646,0 -0.463023,-0.12678 -0.56362,-0.31695 l -0.192925,0.14194 c 0.106109,0.23702 0.389985,0.42719 0.755167,0.42719 z" />
        <path
           id="path4135"
           style="fill:#ff4141;stroke-width:0.264583"
           d="m 47.169566,109.56491 c 0.427193,0 0.78135,-0.24943 0.78135,-0.63252 0,-0.35692 -0.315572,-0.51126 -0.649058,-0.6463 -0.286633,-0.11025 -0.530546,-0.1888 -0.530546,-0.40377 0,-0.19844 0.20395,-0.35554 0.442351,-0.35554 0.199816,0 0.378962,0.113 0.45062,0.27975 l 0.188792,-0.12678 c -0.08268,-0.21911 -0.307304,-0.39964 -0.636656,-0.39964 -0.389986,0 -0.697289,0.25494 -0.697289,0.5967 0,0.34313 0.304547,0.4768 0.5774,0.58291 0.283876,0.10749 0.602204,0.22738 0.602204,0.4768 0,0.21911 -0.237023,0.37621 -0.52779,0.37621 -0.235645,0 -0.463022,-0.12678 -0.563619,-0.31695 l -0.192926,0.14194 c 0.106109,0.23702 0.389986,0.42719 0.755167,0.42719 z" />
      </g>
    </g>
    <g
       inkscape:groupmode="layer"
       id="layer19"
       inkscape:label="VCOCT"
       style="display:inline">
      <g
         style="font-weight:300;font-size:2.82222px;line-height:1.25;font-family:'LEMON MILK';-inkscape-font-specification:'LEMON MILK Light';white-space:pre;shape-inside:url(#rect4735);fill:#2d2d2d"
         id="text4733"
         transform="translate(1.5606315,6.4864809)"
         aria-label="V/OCT">
        <path
           id="path4089"
           style="fill:#2d2d2d"
           d="M 1.8148749,76.730922 1.0569545,78.452091 0.30179014,76.730922 H 0.03582897 l 1.00734513,2.255847 h 0.030317 l 1.0114793,-2.255847 z" />
        <path
           id="path4091"
           style="fill:#2d2d2d"
           d="m 2.1580061,79.117683 h 0.22462 l 0.8971022,-2.552125 h -0.22462 z" />
        <path
           id="path4093"
           style="fill:#2d2d2d"
           d="m 4.5750832,78.981257 c 0.629763,0 1.1437709,-0.51263 1.1437709,-1.138259 0,-0.629763 -0.5140079,-1.143771 -1.1423928,-1.143771 -0.6270069,0 -1.1410148,0.514008 -1.1410148,1.143771 0,0.625629 0.5140079,1.138259 1.1396367,1.138259 z m 0,-0.253559 c -0.4878251,0 -0.8860778,-0.398253 -0.8860778,-0.886078 0,-0.489203 0.3982527,-0.890212 0.8860778,-0.890212 0.4905813,0 0.890212,0.401009 0.890212,0.890212 0,0.487825 -0.3996307,0.886078 -0.890212,0.886078 z" />
        <path
           id="path4095"
           style="fill:#2d2d2d"
           d="m 7.0968911,78.981257 c 0.3279728,0 0.5773976,-0.143316 0.7620546,-0.326595 L 7.7142518,78.453469 c -0.1598524,0.157096 -0.3734481,0.275607 -0.6242509,0.275607 -0.4547522,0 -0.8819438,-0.384472 -0.8819438,-0.886078 0,-0.502983 0.4313257,-0.888834 0.8778097,-0.888834 0.2439126,0 0.4671546,0.114377 0.6270069,0.278364 l 0.146072,-0.19706 C 7.6577522,76.832897 7.3807668,76.701983 7.0955131,76.699227 c -0.6228728,0 -1.1410148,0.51952 -1.1410148,1.143771 0,0.629763 0.5250322,1.138259 1.1423928,1.138259 z" />
        <path
           id="path4097"
           style="fill:#2d2d2d"
           d="M 9.5429075,76.730922 H 8.0022619 v 0.248047 h 0.6462995 v 1.973349 h 0.2508027 v -1.973349 h 0.6435434 z" />
      </g>
      <rect
         y="72.281242"
         x="6.3499994"
         height="8.0312357"
         width="0"
         id="rect8420"
         style="opacity:0.0929487;fill:#ccff42;stroke:#ccff42;stroke-width:0.465;stroke-linecap:round;stroke-miterlimit:4;stroke-dasharray:0.465, 0.93;stroke-dashoffset:0" />
      <path
         id="path8422"
         d="M 1.5341891,72.525304 Z"
         style="fill:none;stroke:#000000;stroke-width:0.264583px;stroke-linecap:butt;stroke-linejoin:miter;stroke-opacity:1" />
    </g>
    <g
       style="display:inline"
       inkscape:groupmode="layer"
       id="layer14"
       inkscape:label="PitchRollSawMorph">
      <text
         xml:space="preserve"
         id="text122"
         style="font-size:3.52778px;line-height:1.25;font-family:sans-serif;white-space:pre;shape-inside:url(#rect124);"><tspan
           style="visibility:hidden"
           x="3.3066406"
           y="70.75993"><tspan
             dx="0 2.1290703 1.0404196 1.9499254 2.4666901">PITCH</tspan></tspan></text>
      <g
         style="font-style:normal;font-variant:normal;font-weight:300;font-stretch:normal;font-size:2.82222px;line-height:1.25;font-family:'LEMON MILK';-inkscape-font-specification:'LEMON MILK Light';fill:#2d2d2d;stroke-width:0.264583"
         id="text4719"
         aria-label="PITCH">
        <path
           id="path4051"
           style="font-style:normal;font-variant:normal;font-weight:300;font-stretch:normal;font-size:2.82222px;font-family:'LEMON MILK';-inkscape-font-specification:'LEMON MILK Light';fill:#2d2d2d;stroke-width:0.264583"
           d="m 2.4473985,61.346458 h 0.2508027 v -0.819932 h 0.4533742 c 0.4299476,0 0.7813471,-0.307302 0.7813471,-0.684884 0,-0.394119 -0.3513995,-0.716579 -0.7813471,-0.716579 H 2.4473985 Z m 0.7041769,-1.0666 -0.4533742,-0.0014 v -0.905371 h 0.4533742 c 0.2921439,0 0.5305443,0.209462 0.5305443,0.465777 0,0.243912 -0.2384004,0.44235 -0.5305443,0.440972 z" />
        <path
           id="path4053"
           style="font-style:normal;font-variant:normal;font-weight:300;font-stretch:normal;font-size:2.82222px;font-family:'LEMON MILK';-inkscape-font-specification:'LEMON MILK Light';fill:#2d2d2d;stroke-width:0.264583"
           d="M 4.2388468,61.346458 H 4.4896496 V 59.125063 H 4.2388468 Z" />
        <path
           id="path4055"
           style="font-style:normal;font-variant:normal;font-weight:300;font-stretch:normal;font-size:2.82222px;font-family:'LEMON MILK';-inkscape-font-specification:'LEMON MILK Light';fill:#2d2d2d;stroke-width:0.264583"
           d="M 6.3375974,59.125063 H 4.7969518 v 0.248046 h 0.6462995 v 1.973349 H 5.694054 v -1.973349 h 0.6435434 z" />
        <path
           id="path4057"
           style="font-style:normal;font-variant:normal;font-weight:300;font-stretch:normal;font-size:2.82222px;font-family:'LEMON MILK';-inkscape-font-specification:'LEMON MILK Light';fill:#2d2d2d;stroke-width:0.264583"
           d="m 7.5571603,61.375397 c 0.3279729,0 0.5773976,-0.143316 0.7620546,-0.326595 L 8.174521,60.847609 c -0.1598523,0.157096 -0.3734481,0.275607 -0.6242509,0.275607 -0.4547522,0 -0.8819437,-0.384472 -0.8819437,-0.886077 0,-0.502984 0.4313256,-0.888834 0.8778096,-0.888834 0.2439126,0 0.4671546,0.114377 0.6270069,0.278363 l 0.146072,-0.197059 C 8.1180214,59.227037 7.841036,59.096124 7.5557823,59.093368 c -0.6228728,0 -1.1410148,0.51952 -1.1410148,1.143771 0,0.629763 0.5250322,1.138258 1.1423928,1.138258 z" />
        <path
           id="path4059"
           style="font-style:normal;font-variant:normal;font-weight:300;font-stretch:normal;font-size:2.82222px;font-family:'LEMON MILK';-inkscape-font-specification:'LEMON MILK Light';fill:#2d2d2d;stroke-width:0.264583"
           d="m 10.003176,59.125063 v 0.985296 H 8.8773199 V 59.125063 H 8.6265171 v 2.221395 h 0.2508028 v -0.988052 h 1.1258561 v 0.988052 h 0.249425 v -2.221395 z" />
      </g>
      <g
         style="font-style:normal;font-variant:normal;font-weight:300;font-stretch:normal;font-size:2.82222px;line-height:1.25;font-family:'LEMON MILK';-inkscape-font-specification:'LEMON MILK Light';fill:#2d2d2d;stroke-width:0.264583"
         id="text4723"
         aria-label="SAW">
        <path
           id="path4071"
           style="font-style:normal;font-variant:normal;font-weight:300;font-stretch:normal;font-size:2.82222px;font-family:'LEMON MILK';-inkscape-font-specification:'LEMON MILK Light';fill:#2d2d2d;stroke-width:0.264583"
           d="m 29.516891,61.377462 c 0.427192,0 0.781347,-0.249425 0.781347,-0.632519 0,-0.356912 -0.31557,-0.511252 -0.649055,-0.6463 -0.286632,-0.110243 -0.530545,-0.188791 -0.530545,-0.403764 0,-0.198438 0.20395,-0.355534 0.44235,-0.355534 0.199816,0 0.378961,0.112999 0.450618,0.279741 l 0.188792,-0.126779 c -0.08268,-0.219108 -0.307303,-0.399631 -0.636654,-0.399631 -0.389984,0 -0.697286,0.254937 -0.697286,0.59669 0,0.343132 0.304546,0.476801 0.577397,0.58291 0.283876,0.107487 0.602202,0.227376 0.602202,0.476801 0,0.219108 -0.237022,0.376204 -0.527788,0.376204 -0.235644,0 -0.46302,-0.126779 -0.563617,-0.316948 l -0.192925,0.141937 c 0.106109,0.237023 0.389984,0.427192 0.755164,0.427192 z" />
        <path
           id="path4073"
           style="font-style:normal;font-variant:normal;font-weight:300;font-stretch:normal;font-size:2.82222px;font-family:'LEMON MILK';-inkscape-font-specification:'LEMON MILK Light';fill:#2d2d2d;stroke-width:0.264583"
           d="m 32.128271,61.347145 h 0.272852 l -1.028016,-2.255847 h -0.02756 l -1.026637,2.255847 h 0.271473 l 0.162608,-0.36518 h 1.212673 z m -1.27744,-0.58291 0.509874,-1.142392 0.508496,1.142392 z" />
        <path
           id="path4075"
           style="font-style:normal;font-variant:normal;font-weight:300;font-stretch:normal;font-size:2.82222px;font-family:'LEMON MILK';-inkscape-font-specification:'LEMON MILK Light';fill:#2d2d2d;stroke-width:0.264583"
           d="m 32.821424,61.360925 h 0.03721 l 0.574642,-1.473121 0.577397,1.473121 h 0.03859 l 0.689019,-2.235176 h -0.270095 l -0.482313,1.62195 -0.540191,-1.441427 h -0.01929 l -0.542947,1.441427 -0.482313,-1.62195 h -0.268717 z" />
      </g>
      <g
         style="font-style:normal;font-variant:normal;font-weight:300;font-stretch:normal;font-size:2.82222px;line-height:1.25;font-family:'LEMON MILK';-inkscape-font-specification:'LEMON MILK Light';fill:#2d2d2d;stroke-width:0.264583"
         id="text4727"
         aria-label="MORPH">
        <path
           id="path4078"
           style="font-style:normal;font-variant:normal;font-weight:300;font-stretch:normal;font-size:2.82222px;font-family:'LEMON MILK';-inkscape-font-specification:'LEMON MILK Light';fill:#2d2d2d;stroke-width:0.264583"
           d="m 41.378354,59.088543 -1.059711,1.766644 -1.05971,-1.766644 h -0.02894 v 2.262737 h 0.250803 v -1.510329 l 0.836468,1.473122 h 0.0028 l 0.835091,-1.470365 v 1.507572 h 0.250803 v -2.262737 z" />
        <path
           id="path4080"
           style="font-style:normal;font-variant:normal;font-weight:300;font-stretch:normal;font-size:2.82222px;font-family:'LEMON MILK';-inkscape-font-specification:'LEMON MILK Light';fill:#2d2d2d;stroke-width:0.264583"
           d="m 42.898329,61.380219 c 0.629763,0 1.143771,-0.51263 1.143771,-1.138259 0,-0.629763 -0.514008,-1.143771 -1.142393,-1.143771 -0.627007,0 -1.141015,0.514008 -1.141015,1.143771 0,0.625629 0.514008,1.138259 1.139637,1.138259 z m 0,-0.253559 c -0.487825,0 -0.886078,-0.398253 -0.886078,-0.886078 0,-0.489203 0.398253,-0.890212 0.886078,-0.890212 0.490581,0 0.890212,0.401009 0.890212,0.890212 0,0.487825 -0.399631,0.886078 -0.890212,0.886078 z" />
        <path
           id="path4082"
           style="font-style:normal;font-variant:normal;font-weight:300;font-stretch:normal;font-size:2.82222px;font-family:'LEMON MILK';-inkscape-font-specification:'LEMON MILK Light';fill:#2d2d2d;stroke-width:0.264583"
           d="m 45.992023,61.35128 -0.66008,-0.895724 c 0.270095,-0.0813 0.467154,-0.329351 0.467154,-0.617361 0,-0.391362 -0.336241,-0.708311 -0.748274,-0.708311 h -0.655946 l 0.0014,2.221396 h 0.250802 v -0.866785 h 0.414789 l 0.620117,0.866785 z M 44.64568,60.272277 v -0.894346 h 0.413411 c 0.261827,0 0.482313,0.198437 0.482313,0.454752 0,0.239779 -0.217729,0.440972 -0.482313,0.440972 z" />
        <path
           id="path4084"
           style="font-style:normal;font-variant:normal;font-weight:300;font-stretch:normal;font-size:2.82222px;font-family:'LEMON MILK';-inkscape-font-specification:'LEMON MILK Light';fill:#2d2d2d;stroke-width:0.264583"
           d="m 46.252471,61.35128 h 0.250803 v -0.819932 h 0.453374 c 0.429948,0 0.781348,-0.307302 0.781348,-0.684884 0,-0.394119 -0.3514,-0.71658 -0.781348,-0.71658 h -0.704177 z m 0.704177,-1.066601 -0.453374,-0.0014 v -0.90537 h 0.453374 c 0.292144,0 0.530545,0.209462 0.530545,0.465777 0,0.243912 -0.238401,0.442349 -0.530545,0.440971 z" />
        <path
           id="path4086"
           style="font-style:normal;font-variant:normal;font-weight:300;font-stretch:normal;font-size:2.82222px;font-family:'LEMON MILK';-inkscape-font-specification:'LEMON MILK Light';fill:#2d2d2d;stroke-width:0.264583"
           d="m 49.420579,59.129884 v 0.985297 H 48.294722 V 59.129884 H 48.04392 v 2.221396 h 0.250802 v -0.988052 h 1.125857 v 0.988052 h 0.249424 v -2.221396 z" />
      </g>
      <g
         style="font-style:normal;font-variant:normal;font-weight:300;font-stretch:normal;font-size:2.82222px;line-height:1.25;font-family:'LEMON MILK';-inkscape-font-specification:'LEMON MILK Light';fill:#2d2d2d;stroke-width:0.264583"
         id="text4731"
         aria-label="ROLL">
        <path
           id="path4062"
           style="font-style:normal;font-variant:normal;font-weight:300;font-stretch:normal;font-size:2.82222px;font-family:'LEMON MILK';-inkscape-font-specification:'LEMON MILK Light';fill:#2d2d2d;stroke-width:0.264583"
           d="m 16.967786,61.346458 -0.66008,-0.895724 c 0.270095,-0.0813 0.467155,-0.329351 0.467155,-0.61736 0,-0.391363 -0.336241,-0.708311 -0.748275,-0.708311 h -0.655945 l 0.0014,2.221395 h 0.250803 v -0.866785 h 0.414789 l 0.620116,0.866785 z m -1.346342,-1.079003 v -0.894346 h 0.413411 c 0.261827,0 0.482313,0.198438 0.482313,0.454752 0,0.239779 -0.21773,0.440972 -0.482313,0.440972 z" />
        <path
           id="path4064"
           style="font-style:normal;font-variant:normal;font-weight:300;font-stretch:normal;font-size:2.82222px;font-family:'LEMON MILK';-inkscape-font-specification:'LEMON MILK Light';fill:#2d2d2d;stroke-width:0.264583"
           d="m 18.250738,61.375397 c 0.629763,0 1.143771,-0.51263 1.143771,-1.138258 0,-0.629763 -0.514008,-1.143771 -1.142392,-1.143771 -0.627007,0 -1.141015,0.514008 -1.141015,1.143771 0,0.625628 0.514008,1.138258 1.139636,1.138258 z m 0,-0.253559 c -0.487825,0 -0.886077,-0.398252 -0.886077,-0.886078 0,-0.489203 0.398252,-0.890212 0.886077,-0.890212 0.490582,0 0.890212,0.401009 0.890212,0.890212 0,0.487826 -0.39963,0.886078 -0.890212,0.886078 z" />
        <path
           id="path4066"
           style="font-style:normal;font-variant:normal;font-weight:300;font-stretch:normal;font-size:2.82222px;font-family:'LEMON MILK';-inkscape-font-specification:'LEMON MILK Light';fill:#2d2d2d;stroke-width:0.264583"
           d="m 19.99809,61.097034 v -1.971971 h -0.250803 v 2.221395 h 1.339452 v -0.249424 z" />
        <path
           id="path4068"
           style="font-style:normal;font-variant:normal;font-weight:300;font-stretch:normal;font-size:2.82222px;font-family:'LEMON MILK';-inkscape-font-specification:'LEMON MILK Light';fill:#2d2d2d;stroke-width:0.264583"
           d="m 21.64071,61.097034 v -1.971971 h -0.250803 v 2.221395 h 1.339453 v -0.249424 z" />
      </g>
    </g>
    <g
       inkscape:label="PitchSweepClickSlope"
       id="layer12"
       inkscape:groupmode="layer"
       style="display:inline">
      <g
         style="font-weight:300;font-size:2.82223px;line-height:1.25;font-family:'LEMON MILK';-inkscape-font-specification:'LEMON MILK Light';fill:#2d2d2d;stroke-width:0.264583"
         id="text6967"
         aria-label="PITCH">
        <path
           id="path3984"
           style="fill:#2d2d2d;stroke-width:0.264583"
           d="m 2.447385,25.205881 h 0.2508036 v -0.819935 h 0.4533759 c 0.4299491,0 0.7813498,-0.307303 0.7813498,-0.684887 0,-0.39412 -0.3514007,-0.716582 -0.7813498,-0.716582 H 2.447385 Z m 0.7041795,-1.066604 -0.4533759,-0.0014 v -0.905374 h 0.4533759 c 0.2921449,0 0.5305462,0.209462 0.5305462,0.465778 0,0.243914 -0.2384013,0.442352 -0.5305462,0.440974 z" />
        <path
           id="path3986"
           style="fill:#2d2d2d;stroke-width:0.264583"
           d="M 4.2388397,25.205881 H 4.4896433 V 22.984477 H 4.2388397 Z" />
        <path
           id="path3988"
           style="fill:#2d2d2d;stroke-width:0.264583"
           d="m 6.3375978,22.984477 h -1.540651 v 0.248048 h 0.6463018 v 1.973356 h 0.2508036 v -1.973356 h 0.6435456 z" />
        <path
           id="path3990"
           style="fill:#2d2d2d;stroke-width:0.264583"
           d="m 7.5571648,25.23482 c 0.327974,0 0.5773996,-0.143316 0.7620572,-0.326596 L 8.1745276,24.70703 c -0.1598529,0.157097 -0.3734494,0.275608 -0.624253,0.275608 -0.4547539,0 -0.8819469,-0.384473 -0.8819469,-0.886081 0,-0.502985 0.4313271,-0.888837 0.8778128,-0.888837 0.2439134,0 0.4671562,0.114378 0.6270091,0.278365 L 8.319222,23.289025 C 8.1180279,23.086452 7.8410414,22.955538 7.5557867,22.952782 c -0.622875,0 -1.1410188,0.519522 -1.1410188,1.143775 0,0.629765 0.5250341,1.138263 1.1423969,1.138263 z" />
        <path
           id="path3992"
           style="fill:#2d2d2d;stroke-width:0.264583"
           d="m 10.00319,22.984477 v 0.9853 H 8.8773292 v -0.9853 H 8.6265256 v 2.221404 H 8.8773292 V 24.217825 H 10.00319 v 0.988056 h 0.249425 v -2.221404 z" />
      </g>
      <g
         style="font-weight:300;font-size:2.82223px;line-height:1.25;font-family:'LEMON MILK';-inkscape-font-specification:'LEMON MILK Light';fill:#2d2d2d;stroke-width:0.264583"
         id="text6971"
         aria-label="SWEEP">
        <path
           id="path3995"
           style="fill:#2d2d2d;stroke-width:0.264583"
           d="m 15.141872,25.236198 c 0.427193,0 0.78135,-0.249426 0.78135,-0.632521 0,-0.356913 -0.315572,-0.511254 -0.649058,-0.646302 -0.286632,-0.110243 -0.530546,-0.188792 -0.530546,-0.403766 0,-0.198438 0.20395,-0.355535 0.442352,-0.355535 0.199816,0 0.378961,0.112999 0.450619,0.279742 l 0.188792,-0.126779 c -0.08268,-0.219109 -0.307303,-0.399633 -0.636655,-0.399633 -0.389986,0 -0.69729,0.254938 -0.69729,0.596693 0,0.343132 0.304548,0.476802 0.5774,0.582911 0.283877,0.107488 0.602204,0.227377 0.602204,0.476803 0,0.219109 -0.237023,0.376205 -0.52779,0.376205 -0.235645,0 -0.463022,-0.12678 -0.563619,-0.316949 l -0.192926,0.141938 c 0.106109,0.237023 0.389986,0.427193 0.755167,0.427193 z" />
        <path
           id="path3997"
           style="fill:#2d2d2d;stroke-width:0.264583"
           d="m 16.632914,25.219662 h 0.03721 l 0.574643,-1.473127 0.5774,1.473127 h 0.03858 l 0.689021,-2.235185 h -0.270096 l -0.482315,1.621956 -0.540192,-1.441432 h -0.01929 l -0.542948,1.441432 -0.482315,-1.621956 h -0.268718 z" />
        <path
           id="path3999"
           style="fill:#2d2d2d;stroke-width:0.264583"
           d="m 20.12625,23.231147 v -0.24667 h -1.305005 v 2.221404 h 1.305005 v -0.249425 h -1.054202 v -0.771704 h 0.913642 v -0.250804 h -0.913642 v -0.702801 z" />
        <path
           id="path4001"
           style="fill:#2d2d2d;stroke-width:0.264583"
           d="m 21.82951,23.231147 v -0.24667 h -1.305005 v 2.221404 h 1.305005 v -0.249425 h -1.054202 v -0.771704 h 0.913642 v -0.250804 h -0.913642 v -0.702801 z" />
        <path
           id="path4003"
           style="fill:#2d2d2d;stroke-width:0.264583"
           d="m 22.227765,25.205881 h 0.250803 v -0.819935 h 0.453376 c 0.429949,0 0.78135,-0.307303 0.78135,-0.684887 0,-0.39412 -0.351401,-0.716582 -0.78135,-0.716582 h -0.704179 z m 0.704179,-1.066604 -0.453376,-0.0014 v -0.905374 h 0.453376 c 0.292145,0 0.530546,0.209462 0.530546,0.465778 0,0.243914 -0.238401,0.442352 -0.530546,0.440974 z" />
      </g>
      <g
         style="font-weight:300;font-size:2.82223px;line-height:1.25;font-family:'LEMON MILK';-inkscape-font-specification:'LEMON MILK Light';fill:#2d2d2d;stroke-width:0.264583"
         id="text6975"
         aria-label="CLICK">
        <path
           id="path4006"
           style="fill:#2d2d2d;stroke-width:0.264583"
           d="m 28.794099,25.23482 c 0.327974,0 0.5774,-0.143316 0.762057,-0.326596 L 29.411462,24.70703 c -0.159853,0.157097 -0.373449,0.275608 -0.624253,0.275608 -0.454754,0 -0.881947,-0.384473 -0.881947,-0.886081 0,-0.502985 0.431327,-0.888837 0.877813,-0.888837 0.243913,0 0.467156,0.114378 0.627009,0.278365 l 0.146072,-0.19706 c -0.201194,-0.202573 -0.47818,-0.333487 -0.763435,-0.336243 -0.622875,0 -1.141019,0.519522 -1.141019,1.143775 0,0.629765 0.525034,1.138263 1.142397,1.138263 z" />
        <path
           id="path4008"
           style="fill:#2d2d2d;stroke-width:0.264583"
           d="M 30.114263,24.956456 V 22.984477 H 29.86346 v 2.221404 h 1.339457 v -0.249425 z" />
        <path
           id="path4010"
           style="fill:#2d2d2d;stroke-width:0.264583"
           d="m 31.506086,25.205881 h 0.250803 v -2.221404 h -0.250803 z" />
        <path
           id="path4012"
           style="fill:#2d2d2d;stroke-width:0.264583"
           d="m 33.253443,25.23482 c 0.327974,0 0.5774,-0.143316 0.762057,-0.326596 L 33.870806,24.70703 c -0.159853,0.157097 -0.373449,0.275608 -0.624253,0.275608 -0.454754,0 -0.881947,-0.384473 -0.881947,-0.886081 0,-0.502985 0.431327,-0.888837 0.877813,-0.888837 0.243913,0 0.467156,0.114378 0.627009,0.278365 l 0.146072,-0.19706 c -0.201194,-0.202573 -0.47818,-0.333487 -0.763435,-0.336243 -0.622875,0 -1.141019,0.519522 -1.141019,1.143775 0,0.629765 0.525034,1.138263 1.142397,1.138263 z" />
        <path
           id="path4014"
           style="fill:#2d2d2d;stroke-width:0.264583"
           d="m 34.322804,25.205881 h 0.250804 v -2.221404 h -0.250804 z m 1.216811,0 h 0.308681 l -0.94258,-1.128616 0.864032,-1.092788 h -0.294901 l -0.868166,1.103812 z" />
      </g>
      <g
         style="font-weight:300;font-size:2.82223px;line-height:1.25;font-family:'LEMON MILK';-inkscape-font-specification:'LEMON MILK Light';fill:#2d2d2d;stroke-width:0.264583"
         id="text6979"
         aria-label="SLOPE">
        <path
           id="path4017"
           style="fill:#2d2d2d;stroke-width:0.264583"
           d="m 40.701035,25.236198 c 0.427193,0 0.78135,-0.249426 0.78135,-0.632521 0,-0.356913 -0.315571,-0.511254 -0.649058,-0.646302 -0.286632,-0.110243 -0.530546,-0.188792 -0.530546,-0.403766 0,-0.198438 0.20395,-0.355535 0.442352,-0.355535 0.199816,0 0.378961,0.112999 0.450619,0.279742 l 0.188792,-0.126779 c -0.08268,-0.219109 -0.307303,-0.399633 -0.636655,-0.399633 -0.389986,0 -0.69729,0.254938 -0.69729,0.596693 0,0.343132 0.304548,0.476802 0.5774,0.582911 0.283877,0.107488 0.602204,0.227377 0.602204,0.476803 0,0.219109 -0.237023,0.376205 -0.52779,0.376205 -0.235645,0 -0.463022,-0.12678 -0.563619,-0.316949 l -0.192926,0.141938 c 0.10611,0.237023 0.389986,0.427193 0.755167,0.427193 z" />
        <path
           id="path4019"
           style="fill:#2d2d2d;stroke-width:0.264583"
           d="m 42.062541,24.956456 v -1.971979 h -0.250804 v 2.221404 h 1.339457 v -0.249425 z" />
        <path
           id="path4021"
           style="fill:#2d2d2d;stroke-width:0.264583"
           d="m 44.361115,25.23482 c 0.629765,0 1.143775,-0.512632 1.143775,-1.138263 0,-0.629765 -0.51401,-1.143775 -1.142397,-1.143775 -0.627009,0 -1.141019,0.51401 -1.141019,1.143775 0,0.625631 0.51401,1.138263 1.139641,1.138263 z m 0,-0.25356 c -0.487827,0 -0.886081,-0.398254 -0.886081,-0.886081 0,-0.489205 0.398254,-0.890215 0.886081,-0.890215 0.490583,0 0.890215,0.40101 0.890215,0.890215 0,0.487827 -0.399632,0.886081 -0.890215,0.886081 z" />
        <path
           id="path4023"
           style="fill:#2d2d2d;stroke-width:0.264583"
           d="m 45.857669,25.205881 h 0.250803 v -0.819935 h 0.453376 c 0.429949,0 0.78135,-0.307303 0.78135,-0.684887 0,-0.39412 -0.351401,-0.716582 -0.78135,-0.716582 h -0.704179 z m 0.704179,-1.066604 -0.453376,-0.0014 v -0.905374 h 0.453376 c 0.292145,0 0.530546,0.209462 0.530546,0.465778 0,0.243914 -0.238401,0.442352 -0.530546,0.440974 z" />
        <path
           id="path4025"
           style="fill:#2d2d2d;stroke-width:0.264583"
           d="m 48.954129,23.231147 v -0.24667 h -1.305006 v 2.221404 h 1.305006 v -0.249425 h -1.054202 v -0.771704 h 0.913642 v -0.250804 h -0.913642 v -0.702801 z" />
      </g>
    </g>
    <g
       inkscape:label="KickBaba"
       id="layer21"
       inkscape:groupmode="layer"
       style="display:inline">
      <g
         style="font-style:normal;font-variant:normal;font-weight:bold;font-stretch:normal;font-size:7.05556px;line-height:1.25;font-family:'LEMON MILK';-inkscape-font-specification:'LEMON MILK Bold';white-space:pre;shape-inside:url(#rect4741);fill:#808080"
         id="text4739"
         transform="translate(-1.0810373,-7.8739822)"
         aria-label="KICKBABA">
        <path
           id="path3967"
           style="font-size:7.05556px;shape-inside:url(#rect4741);fill:#0e232e"
           d="M 11.496585,22.701117 9.5845561,19.855466 11.286434,17.14762 H 9.5914463 L 8.3029798,19.218123 V 17.14762 H 6.8319231 v 5.553497 h 1.4710567 v -2.111845 l 1.4055998,2.111845 z" />
        <path
           id="path3969"
           style="font-size:7.05556px;shape-inside:url(#rect4741);fill:#0e232e"
           d="m 12.02713,22.701117 h 1.474502 V 17.14762 H 12.02713 Z" />
        <path
           id="path3971"
           style="font-size:7.05556px;shape-inside:url(#rect4741);fill:#0e232e"
           d="m 17.256789,22.825141 c 0.844049,0 1.550294,-0.334175 2.080839,-0.816489 l -0.840604,-1.119656 c -0.35829,0.320394 -0.775147,0.54088 -1.240235,0.54088 -0.792373,0 -1.536514,-0.633898 -1.536514,-1.495172 0,-0.85094 0.713135,-1.502063 1.56752,-1.502063 0.409966,0 0.861274,0.203261 1.202339,0.51332 l 0.847494,-1.088651 c -0.568441,-0.516765 -1.336698,-0.830269 -2.053279,-0.840604 -1.729439,0 -3.059246,1.264351 -3.059246,2.907662 0,1.74322 1.464166,2.900773 3.031686,2.900773 z" />
        <path
           id="path3973"
           style="font-size:7.05556px;shape-inside:url(#rect4741);fill:#0e232e"
           d="m 24.629298,22.701117 -1.91203,-2.845651 1.701879,-2.707846 h -1.694988 l -1.288467,2.070503 V 17.14762 h -1.471057 v 5.553497 h 1.471057 v -2.111845 l 1.4056,2.111845 z" />
        <path
           id="path3975"
           style="font-size:7.05556px;fill:#ff4141"
           d="m 28.122626,19.572968 c 0.227377,0 0.606337,-0.409966 0.606337,-0.981853 0,-0.764811 -0.737251,-1.443495 -1.743219,-1.443495 h -1.825902 v 5.553497 h 2.370227 c 1.112767,0 1.850018,-0.816488 1.850018,-1.694988 0,-0.837159 -0.664904,-1.433161 -1.257461,-1.433161 z m -0.630453,-0.71658 c 0,0.285943 -0.241157,0.444418 -0.561551,0.444418 h -0.3514 v -0.87161 h 0.361736 c 0.316949,0 0.551215,0.158474 0.551215,0.427192 z m -0.186035,2.504586 h -0.726916 v -1.0542 l 0.737251,0.0034 c 0.416857,0 0.651124,0.196371 0.651124,0.52021 0,0.36518 -0.323839,0.530545 -0.661459,0.530545 z" />
        <path
           id="path3977"
           style="font-size:7.05556px;fill:#ff4141"
           d="m 33.751915,22.701117 h 1.615751 l -2.583823,-5.622399 h -0.699355 l -2.580378,5.622399 h 1.612305 l 0.282498,-0.647678 h 2.073949 z m -1.887913,-1.725994 0.571886,-1.316027 0.568441,1.316027 z" />
        <path
           id="path3979"
           style="font-size:7.05556px;fill:#ff4141"
           d="m 38.885112,19.572968 c 0.227376,0 0.606337,-0.409966 0.606337,-0.981853 0,-0.764811 -0.737251,-1.443495 -1.74322,-1.443495 h -1.825901 v 5.553497 h 2.370227 c 1.112766,0 1.850017,-0.816488 1.850017,-1.694988 0,-0.837159 -0.664904,-1.433161 -1.25746,-1.433161 z m -0.630453,-0.71658 c 0,0.285943 -0.241157,0.444418 -0.561551,0.444418 h -0.3514 v -0.87161 h 0.361735 c 0.316949,0 0.551216,0.158474 0.551216,0.427192 z m -0.186036,2.504586 h -0.726915 v -1.0542 l 0.737251,0.0034 c 0.416857,0 0.651123,0.196371 0.651123,0.52021 0,0.36518 -0.323839,0.530545 -0.661459,0.530545 z" />
        <path
           id="path3981"
           style="font-size:7.05556px;fill:#ff4141"
           d="m 44.514401,22.701117 h 1.615751 l -2.583824,-5.622399 h -0.699355 l -2.580378,5.622399 h 1.612306 l 0.282498,-0.647678 h 2.073949 z m -1.887914,-1.725994 0.571886,-1.316027 0.568442,1.316027 z" />
      </g>
    </g>
    <g
       inkscape:groupmode="layer"
       id="layer23"
       inkscape:label="Phase">
      <g
         style="font-weight:300;font-size:2.82223px;line-height:1.25;font-family:'LEMON MILK';-inkscape-font-specification:'LEMON MILK Light';display:inline;fill:#2d2d2d;stroke-width:0.264583"
         id="text6967-1"
         aria-label="PHASE AT ROLL">
        <path
           id="path4028"
           style="fill:#2d2d2d;stroke-width:0.264583"
           d="M 1.7114923,49.300289 H 1.962296 v -0.819935 h 0.4533758 c 0.4299491,0 0.7813499,-0.307303 0.7813499,-0.684887 0,-0.39412 -0.3514008,-0.716582 -0.7813499,-0.716582 H 1.7114923 Z m 0.7041795,-1.066604 -0.4533758,-0.0014 v -0.905374 h 0.4533758 c 0.2921449,0 0.5305462,0.209462 0.5305462,0.465778 0,0.243914 -0.2384013,0.442352 -0.5305462,0.440974 z" />
        <path
           id="path4030"
           style="fill:#2d2d2d;stroke-width:0.264583"
           d="m 4.879611,47.078885 v 0.9853 H 3.7537507 v -0.9853 H 3.502947 v 2.221404 H 3.7537507 V 48.312233 H 4.879611 v 0.988056 h 0.2494256 v -2.221404 z" />
        <path
           id="path4032"
           style="fill:#2d2d2d;stroke-width:0.264583"
           d="M 7.2085018,49.300289 H 7.4813542 L 6.4533348,47.044434 H 6.425774 l -1.0266414,2.255855 h 0.2714743 l 0.162609,-0.365181 h 1.212677 z m -1.2774449,-0.582912 0.5098755,-1.142396 0.5084975,1.142396 z" />
        <path
           id="path4034"
           style="fill:#2d2d2d;stroke-width:0.264583"
           d="m 8.3012892,49.330606 c 0.4271931,0 0.7813499,-0.249426 0.7813499,-0.632521 0,-0.356913 -0.3155716,-0.511254 -0.6490578,-0.646302 -0.2866328,-0.110243 -0.5305462,-0.188792 -0.5305462,-0.403766 0,-0.198438 0.2039502,-0.355535 0.4423515,-0.355535 0.1998161,0 0.3789616,0.112999 0.4506197,0.279742 l 0.1887918,-0.126779 c -0.082683,-0.219109 -0.3073034,-0.399633 -0.6366554,-0.399633 -0.3899859,0 -0.6972893,0.254938 -0.6972893,0.596693 0,0.343132 0.3045473,0.476802 0.5773996,0.582911 0.2838767,0.107488 0.6022044,0.227377 0.6022044,0.476803 0,0.219109 -0.2370232,0.376205 -0.5277901,0.376205 -0.2356452,0 -0.4630221,-0.126779 -0.5636192,-0.316949 l -0.1929259,0.141938 c 0.1061092,0.237023 0.3899859,0.427193 0.755167,0.427193 z" />
        <path
           id="path4036"
           style="fill:#2d2d2d;stroke-width:0.264583"
           d="m 10.716997,47.325555 v -0.24667 H 9.4119914 v 2.221404 H 10.716997 V 49.050864 H 9.662795 V 48.27916 h 0.913642 V 48.028356 H 9.662795 v -0.702801 z" />
        <path
           id="path4038"
           style="fill:#2d2d2d;stroke-width:0.264583"
           d="m 13.553008,49.300289 h 0.272852 l -1.028019,-2.255855 h -0.02756 l -1.026642,2.255855 h 0.271475 l 0.162609,-0.365181 h 1.212677 z m -1.277445,-0.582912 0.509875,-1.142396 0.508498,1.142396 z" />
        <path
           id="path4040"
           style="fill:#2d2d2d;stroke-width:0.264583"
           d="m 15.19839,47.078885 h -1.540651 v 0.248048 h 0.646301 v 1.973356 h 0.250804 v -1.973356 h 0.643546 z" />
        <path
           id="path4042"
           style="fill:#2d2d2d;stroke-width:0.264583"
           d="m 17.926913,49.300289 -0.660082,-0.895727 c 0.270096,-0.08131 0.467156,-0.329352 0.467156,-0.617363 0,-0.391364 -0.336242,-0.708314 -0.748277,-0.708314 h -0.655948 l 0.0014,2.221404 h 0.250804 v -0.866788 h 0.414791 l 0.620119,0.866788 z m -1.346347,-1.079007 v -0.894349 h 0.413413 c 0.261828,0 0.482314,0.198438 0.482314,0.454754 0,0.239779 -0.21773,0.440973 -0.482314,0.440973 z" />
        <path
           id="path4044"
           style="fill:#2d2d2d;stroke-width:0.264583"
           d="m 19.20987,49.329228 c 0.629765,0 1.143775,-0.512632 1.143775,-1.138263 0,-0.629765 -0.51401,-1.143775 -1.142397,-1.143775 -0.627009,0 -1.141019,0.51401 -1.141019,1.143775 0,0.625631 0.51401,1.138263 1.139641,1.138263 z m 0,-0.25356 c -0.487827,0 -0.886081,-0.398254 -0.886081,-0.886081 0,-0.489205 0.398254,-0.890215 0.886081,-0.890215 0.490583,0 0.890215,0.40101 0.890215,0.890215 0,0.487827 -0.399632,0.886081 -0.890215,0.886081 z" />
        <path
           id="path4046"
           style="fill:#2d2d2d;stroke-width:0.264583"
           d="m 20.957228,49.050864 v -1.971979 h -0.250803 v 2.221404 h 1.339456 v -0.249425 z" />
        <path
           id="path4048"
           style="fill:#2d2d2d;stroke-width:0.264583"
           d="M 22.599854,49.050864 V 47.078885 H 22.34905 v 2.221404 h 1.339457 v -0.249425 z" />
      </g>
    </g>
  </g>
  <g
     sodipodi:insensitive="true"
     style="display:none"
     inkscape:label="KNOBS"
     id="layer11"
     inkscape:groupmode="layer">
    <g
       sodipodi:insensitive="true"
       inkscape:label="Outputs Top"
       id="g4680"
       inkscape:groupmode="layer"
       style="display:inline">
      <ellipse
         style="fill:#9eabb0;stroke:#bdcdd4;stroke-width:0.0877121"
         id="ellipse4672"
         cx="44.450001"
         cy="116.45306"
         rx="4.8291545"
         ry="4.5974541" />
      <ellipse
         ry="4.5974541"
         rx="4.8291545"
         cy="116.45306"
         cx="31.75"
         id="ellipse4674"
         style="fill:#9eabb0;stroke:#bdcdd4;stroke-width:0.0877121" />
      <ellipse
         style="fill:#9eabb0;stroke:#bdcdd4;stroke-width:0.0877121"
         id="ellipse4676"
         cx="19.049999"
         cy="116.45306"
         rx="4.8291545"
         ry="4.5974541" />
      <ellipse
         ry="4.5974541"
         rx="4.8291545"
         cy="116.45306"
         cx="6.3500004"
         id="ellipse4678"
         style="fill:#9eabb0;stroke:#bdcdd4;stroke-width:0.0877121" />
    </g>
    <g
       style="display:inline"
       inkscape:groupmode="layer"
       id="g4715"
       inkscape:label="Outputs Top copy"
       sodipodi:insensitive="true">
      <ellipse
         ry="4.5974541"
         rx="4.8291545"
         cy="92.359344"
         cx="44.450001"
         id="ellipse4707"
         style="fill:#9eabb0;stroke:#bdcdd4;stroke-width:0.0877121" />
      <ellipse
         style="fill:#9eabb0;stroke:#bdcdd4;stroke-width:0.0877121"
         id="ellipse4709"
         cx="31.75"
         cy="92.359344"
         rx="4.8291545"
         ry="4.5974541" />
      <ellipse
         ry="4.5974541"
         rx="4.8291545"
         cy="92.359344"
         cx="19.049999"
         id="ellipse4711"
         style="fill:#9eabb0;stroke:#bdcdd4;stroke-width:0.0877121" />
      <ellipse
         style="fill:#9eabb0;stroke:#bdcdd4;stroke-width:0.0877121"
         id="ellipse4713"
         cx="6.3499994"
         cy="92.359344"
         rx="4.8291545"
         ry="4.5974541" />
    </g>
    <g
       inkscape:groupmode="layer"
       id="g4690"
       inkscape:label="SketchKnobsMiddle copy"
       style="display:inline"
       sodipodi:insensitive="true">
      <ellipse
         ry="4.5974541"
         rx="4.8291545"
         cy="68.265617"
         cx="44.450001"
         id="ellipse4682"
         style="fill:#9eabb0;stroke:#bdcdd4;stroke-width:0.0877121" />
      <ellipse
         style="fill:#9eabb0;stroke:#bdcdd4;stroke-width:0.0877121"
         id="ellipse4684"
         cx="31.75"
         cy="68.265617"
         rx="4.8291545"
         ry="4.5974541" />
      <ellipse
         ry="4.5974541"
         rx="4.8291545"
         cy="68.265617"
         cx="19.049999"
         id="ellipse4686"
         style="fill:#9eabb0;stroke:#bdcdd4;stroke-width:0.0877121" />
      <ellipse
         style="fill:#9eabb0;stroke:#bdcdd4;stroke-width:0.0877121"
         id="ellipse4688"
         cx="6.3499994"
         cy="68.265617"
         rx="4.8291545"
         ry="4.5974541" />
    </g>
    <g
       sodipodi:insensitive="true"
       inkscape:groupmode="layer"
       id="layer22"
       inkscape:label="SketchKnobsTop"
       style="display:inline">
      <ellipse
         ry="4.5974541"
         rx="4.8291545"
         cy="32.125042"
         cx="44.450001"
         id="ellipse4664"
         style="fill:#9eabb0;stroke:#bdcdd4;stroke-width:0.0877121" />
      <ellipse
         style="fill:#9eabb0;stroke:#bdcdd4;stroke-width:0.0877121"
         id="ellipse4666"
         cx="31.75"
         cy="32.125042"
         rx="4.8291545"
         ry="4.5974541" />
      <ellipse
         ry="4.5974541"
         rx="4.8291545"
         cy="32.125042"
         cx="19.049999"
         id="ellipse4668"
         style="fill:#9eabb0;stroke:#bdcdd4;stroke-width:0.0877121" />
      <ellipse
         style="fill:#9eabb0;stroke:#bdcdd4;stroke-width:0.0877121"
         id="ellipse4670"
         cx="6.3499985"
         cy="32.125042"
         rx="4.8291545"
         ry="4.5974541" />
    </g>
  </g>
</svg>
